<svg xmlns="http://www.w3.org/2000/svg" viewBox="0 0 40 40">
	<path d="M 20 38.5 C 9.800781 38.5 1.5 30.199219 1.5 20 C 1.5 9.800781 9.800781 1.5 20 1.5 C 30.199219 1.5 38.5 9.800781 38.5 20 C 38.5 30.199219 30.199219 38.5 20 38.5 Z "/>
	<path d="M 20 2 C 29.925781 2 38 10.074219 38 20 C 38 29.925781 29.925781 38 20 38 C 10.074219 38 2 29.925781 2 20 C 2 10.074219 10.074219 2 20 2 M 20 1 C 9.507813 1 1 9.507813 1 20 C 1 30.492188 9.507813 39 20 39 C 30.492188 39 39 30.492188 39 20 C 39 9.507813 30.492188 1 20 1 Z "/>
	<path d="M 16.023438 28.019531 L 9.117188 21.113281 L 11.238281 18.992188 L 16.023438 23.777344 L 28.117188 11.683594 L 30.238281 13.804688 Z "/>
</svg>