<svg xmlns="http://www.w3.org/2000/svg" viewBox="0 0 90.9 13.92">
	<defs><style>.cls-1{fill:#fff;}.cls-2{fill:#d8d8d8;fill-opacity:0.7;}.cls-3{fill:#d8d8d8;fill-opacity:0.7;}</style></defs>
	<path class="cls-1" d="M8.5,3.77A4.68,4.68,0,0,1,4.05,7.54,3.08,3.08,0,0,1,.93,3.77,4.71,4.71,0,0,1,5.38,0,3.08,3.08,0,0,1,8.5,3.77Z"/>
	<path class="cls-2" d="M10.63,8.65a6.58,6.58,0,0,1-6.21,5.27A4.29,4.29,0,0,1,.08,8.65,6.58,6.58,0,0,1,6.29,3.37,4.29,4.29,0,0,1,10.63,8.65Z"/>
	<path class="cls-1" d="M13.06,12.3,14.62,2H18a4.35,4.35,0,0,1,2.69.74,2,2,0,0,1,.77,1.64,2.44,2.44,0,0,1,0,.45,2.5,2.5,0,0,1-.57,1.28,2.44,2.44,0,0,1-1.19.82,1.75,1.75,0,0,1,1.3.85,2.18,2.18,0,0,1,.28,1.13,2.15,2.15,0,0,1,0,.43,3.23,3.23,0,0,1-1.3,2.27A5.07,5.07,0,0,1,17,12.3h-4Zm2.3-1.59h1.93a2.09,2.09,0,0,0,1.3-.37,1.42,1.42,0,0,0,.6-1,1.38,1.38,0,0,0,0-.34,1.12,1.12,0,0,0-.28-.82,1.61,1.61,0,0,0-1.22-.4h-1.9ZM16,6.29h1.47a2.1,2.1,0,0,0,1.25-.37,1.45,1.45,0,0,0,.6-1,1.27,1.27,0,0,0,0-.31.88.88,0,0,0-.31-.77,2,2,0,0,0-1.3-.34h-1.3L16,6.26Z"/>
	<path class="cls-1" d="M22.28,12.3l1.16-7.68h2.07L24.35,12.3Zm1.42-9.52h0l.23-1.53H26l-.23,1.53Z"/>
	<path class="cls-1" d="M26.3,6.07l.23-1.45h1.11l.28-1.9H30l-.28,1.9H31l-.23,1.45h-1.3L28.88,10v.26a.55.55,0,0,0,.11.4.62.62,0,0,0,.48.17.87.87,0,0,0,.28,0,1.25,1.25,0,0,0,.28-.06L30,12.25c-.23.09-.43.11-.62.17a4.65,4.65,0,0,1-.65.06,2,2,0,0,1-1.56-.6,1.74,1.74,0,0,1-.37-1.22,5.53,5.53,0,0,1,.06-.65l.6-3.94H26.3Z"/>
	<path class="cls-1" d="M31.57,9.3l0-.06h2a1.16,1.16,0,0,0,0,.31,1.05,1.05,0,0,0,.51,1,2.71,2.71,0,0,0,1.47.37,2,2,0,0,0,1.11-.31,1.08,1.08,0,0,0,.57-.77.78.78,0,0,0,0-.26,1,1,0,0,0-.34-.79A4.7,4.7,0,0,0,35.37,8a6.7,6.7,0,0,1-2.64-1.36A2.18,2.18,0,0,1,32.06,5a2.92,2.92,0,0,1,0-.48,2.7,2.7,0,0,1,1.28-2A4.73,4.73,0,0,1,36,1.84a4,4,0,0,1,2.72.85,2.2,2.2,0,0,1,.77,1.73,4.67,4.67,0,0,1-.06.6l0,.06h-2c0-.09,0-.17,0-.26a1.26,1.26,0,0,0-.37-.91,1.72,1.72,0,0,0-1.28-.45,1.93,1.93,0,0,0-1.08.31,1.12,1.12,0,0,0-.54.77.78.78,0,0,0,0,.26.9.9,0,0,0,.34.77,6.57,6.57,0,0,0,1.76.79,5.87,5.87,0,0,1,2.47,1.36,2.18,2.18,0,0,1,.62,1.62,3.87,3.87,0,0,1-.06.54,2.76,2.76,0,0,1-1.28,2,5,5,0,0,1-2.69.68,5.14,5.14,0,0,1-2.86-.77A2,2,0,0,1,31.52,10a4.23,4.23,0,0,1,.06-.6Z"/>
	<path class="cls-1" d="M40.31,6.07l.23-1.45h1.11l.28-1.9H44l-.28,1.9H45l-.23,1.45h-1.3L42.88,10v.26a.55.55,0,0,0,.11.4.62.62,0,0,0,.48.17.87.87,0,0,0,.28,0,1.25,1.25,0,0,0,.28-.06L44,12.25c-.23.09-.43.11-.62.17a4.65,4.65,0,0,1-.65.06,2,2,0,0,1-1.56-.6,1.74,1.74,0,0,1-.37-1.22,5.53,5.53,0,0,1,.06-.65l.6-3.94H40.31Z"/>
	<path class="cls-1" d="M45.38,8.56l0-.14a4.71,4.71,0,0,1,1.36-2.83A3.92,3.92,0,0,1,49.6,4.51a2.92,2.92,0,0,1,2.47,1.11,3.3,3.3,0,0,1,.62,2,7.5,7.5,0,0,1-.06.77l0,.14a5,5,0,0,1-1.39,2.86,3.9,3.9,0,0,1-2.83,1,2.85,2.85,0,0,1-2.47-1.11,3.3,3.3,0,0,1-.62-2c0-.26,0-.51.06-.79Zm2.07,0h0a3.75,3.75,0,0,0-.06.77,2.3,2.3,0,0,0,.17.94,1.05,1.05,0,0,0,1.11.62,1.5,1.5,0,0,0,1.25-.65,3.9,3.9,0,0,0,.65-1.67l0-.14a6.48,6.48,0,0,0,.06-.71,2.59,2.59,0,0,0-.17-1,1,1,0,0,0-1.08-.62,1.5,1.5,0,0,0-1.25.65,3.28,3.28,0,0,0-.62,1.64l0,.14Z"/>
	<path class="cls-1" d="M53.32,12.3l1.16-7.68h1.93l-.09,1.11a2.57,2.57,0,0,1,.82-.91,1.7,1.7,0,0,1,1-.31.87.87,0,0,1,.28,0l.26.06-.51,1.84-.77,0a1.44,1.44,0,0,0-.79.2,1.8,1.8,0,0,0-.57.57l-.77,5.16H53.26Z"/>
	<path class="cls-1" d="M58.53,8.7l.06-.28a4.78,4.78,0,0,1,1.36-2.86,3.7,3.7,0,0,1,2.72-1.08h0a2.56,2.56,0,0,1,2.21,1,3,3,0,0,1,.54,1.79,7.5,7.5,0,0,1-.06.77l-.14,1.08H60.66l0,0c0,.11,0,.2,0,.31a1.58,1.58,0,0,0,.28,1,1.44,1.44,0,0,0,1.22.48,4.9,4.9,0,0,0,1.19-.14,4.26,4.26,0,0,0,1.08-.43l.37,1.28a4.35,4.35,0,0,1-1.36.62,5.85,5.85,0,0,1-1.76.26,3,3,0,0,1-2.49-1.08,3.13,3.13,0,0,1-.65-2A7,7,0,0,1,58.53,8.7Zm2.3-1h0l0,.06h2.52l0-.17a2.15,2.15,0,0,0,0-.43,1.48,1.48,0,0,0-.14-.65.88.88,0,0,0-.85-.37,1.29,1.29,0,0,0-1,.43,2.29,2.29,0,0,0-.6,1.13Z"/>
	<polygon class="cls-1" points="66.13 12.3 66.41 10.4 68.42 10.4 68.14 12.3 66.13 12.3"/>
	<path class="cls-1" d="M70.1,12.3l1.13-7.68h1.93l-.06,1a3.2,3.2,0,0,1,1.08-.88,2.94,2.94,0,0,1,1.3-.31,1.94,1.94,0,0,1,1.67.77,2.46,2.46,0,0,1,.4,1.47,5.4,5.4,0,0,1-.09.91l-.71,4.71H74.69l.71-4.71a4.37,4.37,0,0,0,.06-.54,1.31,1.31,0,0,0-.14-.65.9.9,0,0,0-.82-.34,1.54,1.54,0,0,0-.82.2A1.64,1.64,0,0,0,73,6.8l-.82,5.53H70.13Z"/>
	<path class="cls-1" d="M78.57,8.7l.06-.28A4.78,4.78,0,0,1,80,5.56a3.7,3.7,0,0,1,2.72-1.08h0a2.56,2.56,0,0,1,2.21,1,3,3,0,0,1,.54,1.79,7.5,7.5,0,0,1-.06.77l-.14,1.08H80.7l0,0c0,.11,0,.2,0,.31a1.58,1.58,0,0,0,.28,1,1.44,1.44,0,0,0,1.22.48,4.9,4.9,0,0,0,1.19-.14,4.26,4.26,0,0,0,1.08-.43l.37,1.28a4.35,4.35,0,0,1-1.36.62,5.85,5.85,0,0,1-1.76.26,3,3,0,0,1-2.49-1.08,3.13,3.13,0,0,1-.65-2A7,7,0,0,1,78.57,8.7Zm2.3-1h0l0,.06h2.52l0-.17a2.15,2.15,0,0,0,0-.43,1.48,1.48,0,0,0-.14-.65.88.88,0,0,0-.85-.37,1.29,1.29,0,0,0-1,.43,2.29,2.29,0,0,0-.6,1.13Z"/>
	<path class="cls-1" d="M86.2,6.07l.23-1.45h1.11l.28-1.9h2.07l-.28,1.9h1.3l-.23,1.45h-1.3L88.78,10v.26a.55.55,0,0,0,.11.4.62.62,0,0,0,.48.17.87.87,0,0,0,.28,0,1.25,1.25,0,0,0,.28-.06l-.06,1.5c-.23.09-.43.11-.62.17a4.65,4.65,0,0,1-.65.06,2,2,0,0,1-1.56-.6,1.74,1.74,0,0,1-.37-1.22,5.53,5.53,0,0,1,.06-.65l.6-3.94H86.2Z"/>
</svg>