<svg xmlns="http://www.w3.org/2000/svg" viewBox="0 0 13.66 12.16"><defs><style>.cls-1{fill:#fff;}</style></defs><title>Ресурс 3</title><g id="Слой_2" data-name="Слой 2"><g id="Слой_1-2" data-name="Слой 1"><g id="Layer_1"><path class="cls-1" d="M4,7.06A6.73,6.73,0,0,0,5.07,7V3.12A7,7,0,0,0,4,3C1.79,3,0,3.83,0,4.85v.4C0,6.24,1.79,7.06,4,7.06Zm5.73,4c-1.93,0-3.51-.62-3.88-1.45a.87.87,0,0,0-.09.37v.4c0,1,1.79,1.81,4,1.81s4-.79,4-1.81v-.4a.87.87,0,0,0-.09-.37C13.21,10.4,11.59,11,9.69,11Zm0-2C7.77,9,6.18,8.39,5.81,7.57a.87.87,0,0,0-.09.37v.4c0,1,1.79,1.81,4,1.81s4-.79,4-1.81v-.4a.87.87,0,0,0-.09-.37C13.21,8.39,11.59,9,9.69,9Zm0-2.13c-1.93,0-3.51-.62-3.88-1.45a.87.87,0,0,0-.09.37v.4c0,1,1.79,1.81,4,1.81s4-.79,4-1.81v-.4a.87.87,0,0,0-.09-.37C13.21,6.26,11.59,6.89,9.69,6.89Zm0-2c-1.93,0-3.51-.62-3.88-1.45a.87.87,0,0,0-.09.37v.4c0,1,1.79,1.81,4,1.81s4-.79,4-1.81V3.8a.87.87,0,0,0-.09-.37C13.21,4.25,11.59,4.88,9.69,4.88ZM9.69,0c-2.18,0-4,.79-4,1.81v.4c0,1,1.79,1.81,4,1.81s4-.79,4-1.81v-.4C13.66.82,11.88,0,9.69,0ZM5.07,9.95V9.86A7,7,0,0,1,4,9.95C2,9.95.45,9.33.09,8.5A.87.87,0,0,0,0,8.87v.4c0,1,1.79,1.81,4,1.81A8.92,8.92,0,0,0,5.22,11a1.66,1.66,0,0,1-.14-.62V9.95ZM4,9A6.73,6.73,0,0,0,5.07,9V7.82A7,7,0,0,1,4,7.91C2,7.91.45,7.29.09,6.46A.87.87,0,0,0,0,6.83v.4C0,8.22,1.79,9,4,9Z"/></g></g></g></svg>