<svg viewBox="0 0 32 32" xmlns="http://www.w3.org/2000/svg">
	<path fill="#77a73a" d=" M 15.44 0.00 L 16.44 0.00 C 24.67 0.16 31.80 7.26 32.00 15.50 L 32.00 16.48 C 31.82 24.70 24.72 31.81 16.50 32.00 L 15.56 32.00 C 7.33 31.84 0.20 24.74 0.00 16.50 L 0.00 15.57 C 0.16 7.34 7.23 0.23 15.44 0.00 M 14.41 17.86 C 12.91 16.41 11.45 14.90 9.76 13.68 C 8.25 13.63 7.58 14.33 7.75 15.78 C 9.55 18.03 11.69 20.02 14.05 21.68 C 17.19 20.69 19.18 17.63 21.76 15.69 C 23.19 14.50 25.83 12.07 22.99 10.80 C 19.58 12.37 17.30 15.56 14.41 17.86 Z" />
</svg>
