<svg xmlns="http://www.w3.org/2000/svg" viewBox="0 0 12.98 12.3"><defs><style>.cls-1{fill:#fff;}</style></defs><title>Ресурс 2</title><g id="Слой_2" data-name="Слой 2"><g id="Слой_1-2" data-name="Слой 1"><g id="Layer_1"><path class="cls-1" d="M12.3,10.26v.68a1.36,1.36,0,0,1-1.36,1.36H1.36A1.36,1.36,0,0,1,0,10.94V1.36A1.34,1.34,0,0,1,1.36,0h9.58A1.36,1.36,0,0,1,12.3,1.36V2H6.15A1.36,1.36,0,0,0,4.79,3.4V8.87a1.34,1.34,0,0,0,1.36,1.36H12.3ZM6.15,8.9H13V3.43H6.15V8.9ZM8.9,7.2a1,1,0,1,1,1-1A1,1,0,0,1,8.9,7.2Z"/></g></g></g></svg>