<svg xmlns="http://www.w3.org/2000/svg" viewBox="0 0 12.98 12.98"><defs><style>.cls-1{fill:#fff;}</style></defs><title>Ресурс 5</title><g id="Слой_2" data-name="Слой 2"><g id="Слой_1-2" data-name="Слой 1"><g id="Layer_1"><path class="cls-1" d="M6.49,0A6.49,6.49,0,1,0,13,6.49,6.49,6.49,0,0,0,6.49,0Zm.65,11.06H5.84V9.75h1.3ZM8.48,6l-.6.6a2.17,2.17,0,0,0-.77,1.84H5.81V8.14a2.59,2.59,0,0,1,.77-1.84l.79-.82a1.34,1.34,0,0,0,.4-.91,1.3,1.3,0,0,0-2.61,0H3.86a2.61,2.61,0,0,1,5.22,0A2.1,2.1,0,0,1,8.48,6h0Z"/></g></g></g></svg>