<svg xmlns="http://www.w3.org/2000/svg" viewBox="0 0 13.69 13.27">
	<defs><style>.cls-1{fill:#fff;}</style></defs>
	<path class="cls-1" d="M2.69,0V7.82a2,2,0,0,1,1.36,1.9,2,2,0,0,1-1.36,1.9v1.64H1.36V11.62A2,2,0,0,1,0,9.72a2,2,0,0,1,1.36-1.9V0Zm9.64,13.27V5.44a2,2,0,0,0,1.36-1.9,2,2,0,0,0-1.36-1.9V0H11V1.64a2,2,0,0,0-1.36,1.9A2,2,0,0,0,11,5.44v7.82Zm-.65-8.84h0a.86.86,0,0,0,.23-.6.91.91,0,0,0-.23-.6h0a.86.86,0,0,0-.23.6.91.91,0,0,0,.23.6Zm-4.17.31a2,2,0,0,1,1.36,1.9,2,2,0,0,1-1.36,1.9v4.73H6.18V8.53a2,2,0,0,1-1.36-1.9,2,2,0,0,1,1.36-1.9V0H7.51Zm-.65,1A.88.88,0,1,1,6,6.63.88.88,0,0,1,6.86,5.75ZM2.69,9.16h0a.86.86,0,0,0-.23.6.91.91,0,0,0,.23.6h0a.86.86,0,0,0,.23-.6A.91.91,0,0,0,2.69,9.16Z"/>
</svg>